<svg xmlns="http://www.w3.org/2000/svg" width="1024" height="1024" preserveAspectRatio="none" style="display:block" viewBox="0 0 2048 2048" id="a1084cf7-71bb-4152-9af2-c68fc0162ab6">
  <defs>
    <linearGradient id="Gradient1" x1="203.62" x2="1824.51" y1="1095.65" y2="901.587" gradientUnits="userSpaceOnUse">
      <stop class="stop0" offset="0" stop-color="#B41D1C"></stop>
      <stop class="stop1" offset="1" stop-color="#FA352C"></stop>
    </linearGradient>
  </defs>
  <path fill="#0A0C0E" d="M 0 0 L 2048 0 L 2048 2048 L 0 2048 L 0 0 z"></path>
  <path fill="url(#Gradient1)" d="M 527.822 224.195 C 592.678 224.559 657.534 224.583 722.39 224.264 L 972 224.128 L 1519.6 224.178 L 1520.02 451.676 C 1545.92 479.104 1572.35 506.035 1599.28 532.456 C 1613.93 546.937 1634.61 566.104 1647.85 581.173 L 1648.11 828.638 C 1657.36 839.145 1671.85 849.045 1682.86 858.145 C 1744.63 909.184 1797.82 968.612 1845 1033.39 C 1778.98 1032.05 1711.46 1033.88 1645.19 1033.24 C 1646.78 1084.68 1645.72 1136.16 1646.15 1187.59 C 1646.33 1208.97 1645.41 1234.73 1646.7 1255.79 C 1633.67 1267.06 1620.78 1280.25 1608.06 1292.09 L 1543.87 1350.99 C 1505.03 1386.9 1465.18 1421.71 1426.36 1457.87 C 1457.48 1487.76 1487.52 1520.85 1517.67 1552.05 C 1484.35 1544.39 1450.94 1538.79 1417.35 1532.62 C 1397.25 1528.93 1377.13 1524.75 1356.96 1521.56 C 1308.27 1570.55 1251.01 1619.36 1199.96 1666.67 L 1063.5 1794.33 C 1050.27 1806.6 1037.6 1819.54 1024.14 1831.55 C 975.097 1787.55 927.667 1740.63 879.08 1696.04 C 848.647 1668.12 817.894 1640.31 787.801 1612.06 L 717.97 1546.47 C 711.283 1540.25 694.305 1523.51 688.334 1519.38 C 668.36 1521.06 637.003 1528.99 616.464 1532.66 C 589.913 1537.4 560.711 1541.61 534.629 1547.49 C 543.118 1538.11 556.976 1525.24 566.253 1516.19 C 585.343 1497.46 604.567 1478.88 623.923 1460.43 C 617.724 1454.02 607.949 1445.81 601.173 1439.56 L 552.758 1394.72 C 502.322 1348.61 452.421 1301.91 403.065 1254.65 C 402.293 1181.09 402.233 1107.52 402.885 1033.96 L 192.176 1034.19 C 219.604 1001.94 246.308 969.08 276.664 939.487 C 281.412 934.857 286.378 929.687 291.638 925.692 L 293.152 926.04 C 312.748 910.232 331.441 888.643 353.408 876.533 C 353.912 876.255 365.51 880.233 366.599 881.02 C 373.39 885.922 383.801 881.908 389.699 884.216 C 387.038 892.471 346.261 919.027 337.43 926.782 C 334.076 929.727 318.386 942.814 314.877 944.921 L 314.833 945.971 L 316.545 946.313 C 303.397 960.304 283.108 972.79 268.023 989.113 C 287.54 990.492 313.918 989.984 333.87 990.153 L 455.727 990.842 L 455.22 1234.09 C 529.921 1300.49 604.696 1373.22 677.777 1441.75 L 1023.03 1760.31 C 1027.89 1756.48 1033.29 1751.63 1037.79 1747.32 C 1062.79 1723.43 1088.23 1700.12 1113.63 1676.69 L 1306.76 1498.64 L 1506.78 1315.55 C 1532.45 1292.06 1572.28 1258.58 1595.6 1234.58 L 1595.95 990.161 C 1655.24 989.194 1715.09 990.645 1774.56 989.563 C 1726.17 942.136 1652.62 886.406 1596.81 847.135 L 1596.96 597.604 C 1580.29 583.137 1557.93 560.145 1542.12 544.342 L 1470.02 472.795 C 1469.26 406.825 1469.77 339.343 1469.81 273.317 C 1381.68 273.974 1293.54 274.17 1205.41 273.906 L 915.436 273.864 L 693.028 274.114 C 658.249 274.062 613.866 275.192 580.064 273.274 C 580.206 338.554 580.918 404.962 580.14 470.19 C 571.846 481.873 556.258 497.161 546.212 507.693 L 494.041 562.586 C 481.345 575.699 463.263 593.467 452.243 607.309 C 450.616 654.793 451.976 711.828 452.197 759.873 C 436.658 771.482 417.464 784.291 401.385 795.561 C 400.532 772.902 401.002 746.242 400.873 723.224 C 400.527 677.108 400.436 630.99 400.601 584.873 C 416.911 568.81 431.868 552.372 447.738 535.987 L 528.067 453.531 L 527.822 224.195 z"></path>
  <path fill="#FEFEFE" d="M920.133 634.886 920.861 635.325C922.563 637.974 922.282 739.774 922.332 750.03L922.459 1017.5 922.03 1625.36C896.051 1603.42 867.202 1575.19 842.094 1551.7L740.836 1458.22C697.737 1418.31 654.85 1378.17 612.177 1337.81 569.765 1298.46 528.447 1261.26 486.85 1220.71 486.536 1189.39 486.465 1158.07 486.634 1126.75L486.858 925.537C515.567 906.859 544.143 887.978 572.585 868.896 583.668 861.47 598.239 850.183 609.049 844.145L609.219 1046.14C609.106 1086.3 608.316 1128.01 608.858 1168.01 621.364 1182.04 645.509 1202.2 660.183 1216.25 688.738 1243.37 717.509 1270.26 746.492 1296.93 764.069 1313.3 781.105 1329.96 798.997 1346.03L798.693 720.231C825.991 700.093 854.269 681.35 881.597 661.233 894.205 651.951 906.678 642.91 920.133 634.886zM1126.31 701.518C1135.36 706.162 1160.33 724.731 1169.95 731.544 1197.03 750.77 1224.24 769.809 1251.58 788.659L1251.16 1348.17C1279.74 1319.74 1309.59 1293.99 1339.19 1267.02L1439.86 1174.12C1440.24 1150.88 1439.82 1126.45 1439.77 1103.13 1401.03 1103.71 1362.29 1103.74 1323.56 1103.25 1322.07 1069.4 1323.24 1024.6 1323.17 990.169 1403.03 989.828 1486.15 988.756 1565.8 989.885L1565.31 1149.23 1565.43 1222.14C1541.84 1245.68 1511.65 1270.89 1486.59 1293.45L1353.59 1415 1187.91 1566.88C1169.26 1583.92 1143.76 1609.89 1125.43 1625.12 1124.11 1591.16 1125.22 1550.01 1125.23 1515.6L1125.53 1288.18C1124.72 1092.63 1124.97 897.07 1126.31 701.518z"></path>
  <path fill="#E22720" d="M 611.906 305.876 L 1163.39 305.778 L 1343.6 305.563 C 1372.71 305.504 1411.16 304.231 1439.33 305.605 C 1439.07 357.216 1440 413.025 1438.42 464.283 C 1405.44 466.097 1360.42 464.753 1326.77 464.208 C 1326.31 448.717 1326.15 433.219 1326.27 417.722 L 1093.05 417.644 L 1093.14 777.271 L 1093.76 900.567 C 1093.82 917.883 1094.67 947.581 1093.37 964.147 C 1046.87 963.888 1000.36 963.983 953.865 964.434 L 954.518 417.039 L 721.881 417.157 L 721.662 467.553 C 685.115 467.229 648.566 467.134 612.018 467.268 L 611.906 305.876 z"></path>
  <path fill="#E22720" d="M 953.865 964.434 C 1000.36 963.983 1046.87 963.888 1093.37 964.147 C 1091.81 1005.98 1093.04 1055.16 1093.13 1097.43 L 1093.81 1354.8 C 1094 1402.56 1095.21 1455.61 1094.01 1503.07 C 1093.88 1550.56 1092.13 1602.08 1093.55 1649.21 C 1069.55 1667.31 1045.84 1693.46 1023 1712.26 C 1010.37 1702.3 999.235 1691.4 987.329 1680.67 C 976.141 1670.58 964.789 1661.01 953.995 1650.47 L 953.812 1503.53 C 952.474 1433.55 953.698 1361.83 953.815 1291.64 L 953.865 964.434 z"></path>
  <path fill="#AE1513" d="M 1023.07 1566.46 C 1038.08 1552.19 1053.34 1538.21 1068.86 1524.5 C 1076.93 1517.32 1085.27 1509.33 1094.01 1503.07 C 1093.88 1550.56 1092.13 1602.08 1093.55 1649.21 C 1069.55 1667.31 1045.84 1693.46 1023 1712.26 C 1010.37 1702.3 999.235 1691.4 987.329 1680.67 C 976.141 1670.58 964.789 1661.01 953.995 1650.47 L 953.812 1503.53 C 960.441 1508.14 966.499 1515.22 972.593 1520.58 C 987.929 1534.09 1007.15 1554.76 1023.07 1566.46 z"></path>
  <path fill="#E22720" d="M 893.058 490.071 C 902.981 489.947 912.905 489.972 922.826 490.147 L 922.794 510.495 L 922.639 586.188 C 870.424 626.091 814.663 663.853 760.475 701.257 C 691.244 749.629 621.558 797.345 551.426 844.401 L 430.849 926.707 C 415.764 936.97 395.052 952.558 380.129 961.21 C 369.515 959.335 346.672 959.834 335.022 959.829 C 341.548 954.424 351.525 945.797 357.127 940.189 C 367.845 929.457 402.182 889.536 405.651 877.145 C 394.47 885.156 384.345 894.054 373.498 902.013 C 353.597 916.616 335.461 930.361 316.545 946.313 L 314.833 945.971 L 314.877 944.921 C 318.386 942.814 334.076 929.727 337.43 926.782 C 346.261 919.027 387.038 892.471 389.699 884.216 C 383.801 881.908 373.39 885.922 366.599 881.02 C 365.51 880.233 353.912 876.255 353.408 876.533 C 331.441 888.643 312.748 910.232 293.152 926.04 L 291.638 925.692 C 319.514 897.856 352.313 873.409 383.167 849.057 C 440.249 804.004 499.189 763.767 558.727 722.388 L 893.058 490.071 z"></path>
  <path fill="#F66E59" d="M 893.058 490.071 C 902.981 489.947 912.905 489.972 922.826 490.147 L 922.794 510.495 C 922.466 513.632 922.715 517.975 920.56 519.586 C 911.11 526.653 899.863 534.052 890.143 540.571 L 816.377 590.137 C 756.507 630.927 696.948 672.173 637.706 713.872 C 614.87 729.629 412.034 866.553 405.651 877.145 C 394.47 885.156 384.345 894.054 373.498 902.013 C 353.597 916.616 335.461 930.361 316.545 946.313 L 314.833 945.971 L 314.877 944.921 C 318.386 942.814 334.076 929.727 337.43 926.782 C 346.261 919.027 387.038 892.471 389.699 884.216 C 383.801 881.908 373.39 885.922 366.599 881.02 C 365.51 880.233 353.912 876.255 353.408 876.533 C 331.441 888.643 312.748 910.232 293.152 926.04 L 291.638 925.692 C 319.514 897.856 352.313 873.409 383.167 849.057 C 440.249 804.004 499.189 763.767 558.727 722.388 L 893.058 490.071 z"></path>
  <path fill="#FEFEFE" d="M 1126.79 489.923 L 1317 490.025 C 1358.61 490.033 1401.63 489.517 1443.13 490.352 C 1454.34 502.025 1468.25 514.681 1480.01 526.402 C 1508.21 555.082 1536.91 583.263 1566.11 610.932 L 1565.85 745.916 C 1565.88 765.204 1567.09 798.752 1565.43 816.523 C 1542.11 798.885 1518.51 781.613 1494.65 764.711 C 1479.44 754.092 1454.42 738.018 1441.48 726.248 L 1441.77 673.303 C 1422.68 653.312 1402.35 633.221 1382.99 613.266 C 1359.65 613.222 1336.24 613.955 1312.89 614.059 C 1303.34 614.101 1292.18 615.249 1282.84 613.235 C 1275.71 611.696 1144.9 518.797 1126.54 506.209 C 1126.41 501.037 1126.68 495.15 1126.79 489.923 z"></path>
  <path fill="#E22720" d="M 1127.1 541.179 C 1178.3 582.192 1247.22 628.222 1301.57 666.099 C 1396.98 731.726 1491.47 798.673 1585.03 866.921 L 1663.32 924.425 C 1676.77 934.273 1696.52 947.665 1708.45 958.298 C 1690.1 959.479 1668.34 959.258 1649.79 958.957 C 1618 958.82 1586.2 958.846 1554.41 959.034 C 1506.01 930.041 1454.24 891.853 1408.29 859.258 L 1246.03 744.635 C 1220.17 726.035 1192.81 708.572 1166.79 690.152 C 1153.83 680.983 1138.25 671.187 1126.41 660.916 C 1125.86 638.134 1125.77 610.569 1126.86 587.937 L 1127.1 541.179 z"></path>
  <path fill="#F66E59" d="M 1127.1 541.179 C 1178.3 582.192 1247.22 628.222 1301.57 666.099 C 1396.98 731.726 1491.47 798.673 1585.03 866.921 L 1663.32 924.425 C 1676.77 934.273 1696.52 947.665 1708.45 958.298 C 1690.1 959.479 1668.34 959.258 1649.79 958.957 C 1641.59 953.357 1633.02 946.415 1624.75 940.506 L 1546.11 884.755 L 1299.07 710.914 C 1266.24 687.384 1233.22 664.112 1200.02 641.101 C 1175.67 624.111 1149.64 606.761 1126.86 587.937 L 1127.1 541.179 z"></path>
  <path fill="#FEFEFE" d="M816.5 489.464C824.963 489.264 833.732 489.373 842.221 489.362 794.757 518.619 740.822 557.283 694.713 589.213L499.496 724.51C494.074 728.076 488.606 731.57 483.093 734.992L482.974 619.613C492.304 612.186 513.733 588.153 523.019 578.502 550.993 549.428 578.395 518.208 607.429 490.098 677.12 490.522 746.813 490.31 816.5 489.464zM1444.08 926.506C1451.51 930.202 1487.22 952.862 1491.52 958.803 1475.65 959.143 1459.3 959.044 1443.39 959.146 1443.18 948.353 1443.71 937.314 1444.08 926.506z"></path>
  <path fill="#E22720" d="M 455.529 947.856 C 458.027 950.35 457.49 956.286 457.537 959.949 L 438.963 959.99 C 438.58 959.703 438.196 959.417 437.813 959.13 C 441.101 956.154 451.224 950.434 455.529 947.856 z"></path>
</svg>
